<svg width="1080" height="106" viewBox="0 0 1080 106" fill="none" xmlns="http://www.w3.org/2000/svg">
<path d="M102.903 30.3038V12.0324C102.903 12.0324 56.3743 -15.0405 18.2746 12.0324C12.4711 17.2361 7.84055 23.6145 4.69016 30.7443C1.53978 37.8741 -0.0584138 45.5924 0.00163131 53.387C0.00163131 80.3141 21.1588 94.7384 21.1588 94.7384C21.1588 94.7384 55.4082 118.78 104.456 94.7384V48.5784H51.4525V65.8899H85.2197V83.1984C85.2197 83.1984 22.1202 105.435 23.0816 52.745C23.0816 52.745 20.1974 23.574 51.4525 19.7268C51.4525 19.7268 72.129 13.9568 102.903 30.3054V30.3038ZM165.415 0.0644379H184.649V105.424H165.415V0.0644379ZM233.697 0.0644379H255.815L287.551 76.4654L320.25 0.0644379H343.332L296.207 103.02H278.897L233.697 0.0644379ZM389.493 0.0644379V105.424H475.085V86.0826H410.65V61.0782H455.852V44.7296H410.65V19.7252H475.085V0.0644379H389.493ZM530.864 103.02H551.062V35.114L613.573 103.02H630.881V0.0644379H611.65V70.6985L547.584 0.0644379H530.864V103.02ZM778.025 33.1912C778.025 33.1912 771.292 19.7268 737.631 18.7654C737.631 18.7654 696.279 18.4413 698.201 52.745C700.124 87.0487 738.08 85.1227 738.08 85.1227C738.08 85.1227 773.214 84.1613 778.025 72.6213V94.3662C778.025 94.3662 770.259 103.02 738.08 105.424C738.08 105.424 677.044 107.241 677.044 57.2326C677.044 57.2326 673.199 -1.3265 733.784 0.0644379C733.784 0.0644379 767.446 -0.468989 778.025 9.1482V33.1912ZM832.842 0.0644379H854.001V43.7713H908.815V0.0644379H929.014V103.02H909.779V62.0427H853.038V103.02H832.842V0.0644379ZM1010.76 61.0813V103.02H1031.91V61.0813L1080 0.0644379H1055L1021.34 42.8099L989.601 0.0644379H963.634L1010.76 61.0813Z" fill="white"/>
</svg>
