<svg width="500" height="49" viewBox="0 0 500 49" fill="none" xmlns="http://www.w3.org/2000/svg">
<path d="M47.6404 14.0296V5.57057C47.6404 5.57057 26.0992 -6.96321 8.46046 5.57057C5.77366 7.97969 3.62989 10.9326 2.17137 14.2335C0.712859 17.5343 -0.0270434 21.1076 0.000755238 24.7162C0.000755238 37.1825 9.79575 43.8604 9.79575 43.8604C9.79575 43.8604 25.652 54.9906 48.3591 43.8604V22.49H23.8206V30.5046H39.4535V38.5178C39.4535 38.5178 10.2408 48.8124 10.6859 24.419C10.6859 24.419 9.35066 10.9139 23.8206 9.13278C23.8206 9.13278 33.3931 6.46148 47.6404 14.0303V14.0296ZM76.5811 0.0298324H85.4859V48.8074H76.5811V0.0298324ZM108.193 0.0298324H118.433L133.126 35.4007L148.264 0.0298324H158.95L137.133 47.6946H129.119L108.193 0.0298324ZM180.321 0.0298324V48.8074H219.947V39.8531H190.116V28.277H211.043V20.7082H190.116V9.13206H219.947V0.0298324H180.321ZM245.77 47.6946H255.121V16.2565L284.061 47.6946H292.075V0.0298324H283.171V32.7308L253.511 0.0298324H245.77V47.6946ZM360.197 15.3663C360.197 15.3663 357.079 9.13278 341.496 8.68768C341.496 8.68768 322.351 8.53764 323.241 24.419C324.132 40.3003 341.704 39.4087 341.704 39.4087C341.704 39.4087 357.97 38.9636 360.197 33.621V43.6881C360.197 43.6881 356.601 47.6946 341.704 48.8074C341.704 48.8074 313.446 49.6488 313.446 26.4966C313.446 26.4966 311.666 -0.614122 339.715 0.0298324C339.715 0.0298324 355.299 -0.217125 360.197 4.23528V15.3663ZM385.575 0.0298324H395.371V20.2645H420.748V0.0298324H430.099V47.6946H421.194V28.7235H394.925V47.6946H385.575V0.0298324ZM467.944 28.2784V47.6946H477.738V28.2784L500 0.0298324H488.424L472.84 19.8194L458.149 0.0298324H446.127L467.944 28.2784Z" fill="white"/>
</svg>
